    <svg xmlns="http://www.w3.org/2000/svg" width="200" height="200" viewBox="0 0 100 100" >
        <circle cx="15" cy="15" r="10" stroke="none" stroke-width="0" fill="#fcad3a" />       

        <rect width="25" height="60" x="30" y="20" rx="15" ry="15" stroke="none" stroke-width="0" fill="#46a655"/>
        <rect width="25" height="50" x="70" y="28" rx="15" ry="15" stroke="none" stroke-width="0" fill="#7fdc48"/>
        <rect width="25" height="70" x="50" y="5" rx="15" ry="15" stroke="none" stroke-width="0" fill="#b7f07d"/>

        <rect width="5" height="80" x="80" y="70" rx="0" ry="0" stroke="none" stroke-width="0" fill="#6c4127"/>

        <rect width="5" height="80" x="60" y="40" rx="0" ry="0" stroke="none" stroke-width="0" fill="#6c4127"/>

        <line x1="55" y1="60" x2="62" y2="70" x="0" y="0" rx="0" ry="0" stroke="#6c4127" stroke-width="5"/>

        <line x1="70.5" y1="60" x2="63" y2="70" x="0" y="0" rx="0" ry="0" stroke="#6c4127" stroke-width="5"/>

        <line x1="55" y1="45" x2="62.5" y2="55" x="0" y="0" rx="0" ry="0" stroke="#6c4127" stroke-width="5"/>

        <rect width="5" height="80" x="40" y="60" rx="0" ry="0" stroke="none" stroke-width="0" fill="#6c4127"/>

        <line x1="43" y1="75" x2="34" y2="68" x="0" y="0" rx="0" ry="0" stroke="#6c4127" stroke-width="5"/>

        <rect width="200" height="20" x="0" y="90" stroke="none" stroke-width="0" fill="#7fdc48"/>

    </svg>